<?xml version="1.0" standalone="no"?>
<!DOCTYPE svg PUBLIC "-//W3C//DTD SVG 1.1//EN" "http://www.w3.org/Graphics/SVG/1.1/DTD/svg11.dtd">
<svg width="800" height="600" version="1.1" xmlns="http://www.w3.org/2000/svg">
<rect width="800" height="600" x="0" y="0" style="fill:rgb(238,238,238);stroke:none"/>
<rect width="800" height="600" x="0" y="0" style="fill:rgb(255,255,255);stroke:none"/>
<text x="2" y="566" fill="rgb(0,0,0)" font-family="Arial" font-size="12">0</text>
<text x="2" y="537" fill="rgb(0,0,0)" font-family="Arial" font-size="12">2</text>
<text x="2" y="507" fill="rgb(0,0,0)" font-family="Arial" font-size="12">4</text>
<text x="2" y="477" fill="rgb(0,0,0)" font-family="Arial" font-size="12">6</text>
<text x="2" y="448" fill="rgb(0,0,0)" font-family="Arial" font-size="12">8</text>
<text x="2" y="418" fill="rgb(0,0,0)" font-family="Arial" font-size="12">10</text>
<text x="2" y="388" fill="rgb(0,0,0)" font-family="Arial" font-size="12">12</text>
<text x="2" y="358" fill="rgb(0,0,0)" font-family="Arial" font-size="12">14</text>
<text x="2" y="329" fill="rgb(0,0,0)" font-family="Arial" font-size="12">16</text>
<text x="2" y="299" fill="rgb(0,0,0)" font-family="Arial" font-size="12">18</text>
<text x="2" y="269" fill="rgb(0,0,0)" font-family="Arial" font-size="12">20</text>
<text x="2" y="240" fill="rgb(0,0,0)" font-family="Arial" font-size="12">22</text>
<text x="2" y="210" fill="rgb(0,0,0)" font-family="Arial" font-size="12">24</text>
<text x="2" y="180" fill="rgb(0,0,0)" font-family="Arial" font-size="12">26</text>
<text x="2" y="150" fill="rgb(0,0,0)" font-family="Arial" font-size="12">28</text>
<text x="2" y="121" fill="rgb(0,0,0)" font-family="Arial" font-size="12">30</text>
<text x="2" y="91" fill="rgb(0,0,0)" font-family="Arial" font-size="12">32</text>
<text x="2" y="61" fill="rgb(0,0,0)" font-family="Arial" font-size="12">34</text>
<text x="229" y="30" fill="rgb(0,0,0)" font-family="Arial" font-size="12">Quality scores across all bases (Sanger / Illumina 1.9 encoding)</text>
<rect width="77" height="297" x="19" y="263" style="fill:rgb(230,175,175);stroke:none"/>
<rect width="77" height="119" x="19" y="144" style="fill:rgb(230,215,175);stroke:none"/>
<rect width="77" height="104" x="19" y="40" style="fill:rgb(175,230,175);stroke:none"/>
<text x="54" y="575" fill="rgb(0,0,0)" font-family="Arial" font-size="12">1</text>
<rect width="77" height="297" x="96" y="263" style="fill:rgb(230,195,195);stroke:none"/>
<rect width="77" height="119" x="96" y="144" style="fill:rgb(230,220,195);stroke:none"/>
<rect width="77" height="104" x="96" y="40" style="fill:rgb(195,230,195);stroke:none"/>
<text x="131" y="575" fill="rgb(0,0,0)" font-family="Arial" font-size="12">2</text>
<rect width="77" height="297" x="173" y="263" style="fill:rgb(230,175,175);stroke:none"/>
<rect width="77" height="119" x="173" y="144" style="fill:rgb(230,215,175);stroke:none"/>
<rect width="77" height="104" x="173" y="40" style="fill:rgb(175,230,175);stroke:none"/>
<text x="208" y="575" fill="rgb(0,0,0)" font-family="Arial" font-size="12">3</text>
<rect width="77" height="297" x="250" y="263" style="fill:rgb(230,195,195);stroke:none"/>
<rect width="77" height="119" x="250" y="144" style="fill:rgb(230,220,195);stroke:none"/>
<rect width="77" height="104" x="250" y="40" style="fill:rgb(195,230,195);stroke:none"/>
<text x="285" y="575" fill="rgb(0,0,0)" font-family="Arial" font-size="12">4</text>
<rect width="77" height="297" x="327" y="263" style="fill:rgb(230,175,175);stroke:none"/>
<rect width="77" height="119" x="327" y="144" style="fill:rgb(230,215,175);stroke:none"/>
<rect width="77" height="104" x="327" y="40" style="fill:rgb(175,230,175);stroke:none"/>
<text x="362" y="575" fill="rgb(0,0,0)" font-family="Arial" font-size="12">5</text>
<rect width="77" height="297" x="404" y="263" style="fill:rgb(230,195,195);stroke:none"/>
<rect width="77" height="119" x="404" y="144" style="fill:rgb(230,220,195);stroke:none"/>
<rect width="77" height="104" x="404" y="40" style="fill:rgb(195,230,195);stroke:none"/>
<text x="439" y="575" fill="rgb(0,0,0)" font-family="Arial" font-size="12">6</text>
<rect width="77" height="297" x="481" y="263" style="fill:rgb(230,175,175);stroke:none"/>
<rect width="77" height="119" x="481" y="144" style="fill:rgb(230,215,175);stroke:none"/>
<rect width="77" height="104" x="481" y="40" style="fill:rgb(175,230,175);stroke:none"/>
<text x="516" y="575" fill="rgb(0,0,0)" font-family="Arial" font-size="12">7</text>
<rect width="77" height="297" x="558" y="263" style="fill:rgb(230,195,195);stroke:none"/>
<rect width="77" height="119" x="558" y="144" style="fill:rgb(230,220,195);stroke:none"/>
<rect width="77" height="104" x="558" y="40" style="fill:rgb(195,230,195);stroke:none"/>
<text x="593" y="575" fill="rgb(0,0,0)" font-family="Arial" font-size="12">8</text>
<rect width="77" height="297" x="635" y="263" style="fill:rgb(230,175,175);stroke:none"/>
<rect width="77" height="119" x="635" y="144" style="fill:rgb(230,215,175);stroke:none"/>
<rect width="77" height="104" x="635" y="40" style="fill:rgb(175,230,175);stroke:none"/>
<text x="670" y="575" fill="rgb(0,0,0)" font-family="Arial" font-size="12">9</text>
<rect width="77" height="297" x="712" y="263" style="fill:rgb(230,195,195);stroke:none"/>
<rect width="77" height="119" x="712" y="144" style="fill:rgb(230,220,195);stroke:none"/>
<rect width="77" height="104" x="712" y="40" style="fill:rgb(195,230,195);stroke:none"/>
<text x="743" y="575" fill="rgb(0,0,0)" font-family="Arial" font-size="12">10</text>
<line x1="19" y1="560" x2="790" y2="560" stroke="rgb(0,0,0)" stroke-width="1"/>
<line x1="19" y1="560" x2="19" y2="40" stroke="rgb(0,0,0)" stroke-width="1"/>
<text x="345" y="595" fill="rgb(0,0,0)" font-family="Arial" font-size="12">Position in read (bp)</text>
<rect width="73" height="0" x="21" y="115" style="fill:rgb(240,240,0);stroke:none"/>
<rect width="73" height="0" x="21" y="115" rx="0" ry="0" style="fill:none;stroke-width:1;stroke:rgb(0,0,0)"/>
<line x1="57" y1="115" x2="57" y2="115" stroke="rgb(0,0,0)" stroke-width="1"/>
<line x1="21" y1="115" x2="94" y2="115" stroke="rgb(0,0,0)" stroke-width="1"/>
<line x1="57" y1="115" x2="57" y2="115" stroke="rgb(0,0,0)" stroke-width="1"/>
<line x1="21" y1="115" x2="94" y2="115" stroke="rgb(0,0,0)" stroke-width="1"/>
<line x1="21" y1="115" x2="94" y2="115" stroke="rgb(200,0,0)" stroke-width="1"/>
<rect width="73" height="0" x="98" y="115" style="fill:rgb(240,240,0);stroke:none"/>
<rect width="73" height="0" x="98" y="115" rx="0" ry="0" style="fill:none;stroke-width:1;stroke:rgb(0,0,0)"/>
<line x1="134" y1="115" x2="134" y2="115" stroke="rgb(0,0,0)" stroke-width="1"/>
<line x1="98" y1="115" x2="171" y2="115" stroke="rgb(0,0,0)" stroke-width="1"/>
<line x1="134" y1="115" x2="134" y2="115" stroke="rgb(0,0,0)" stroke-width="1"/>
<line x1="98" y1="115" x2="171" y2="115" stroke="rgb(0,0,0)" stroke-width="1"/>
<line x1="98" y1="115" x2="171" y2="115" stroke="rgb(200,0,0)" stroke-width="1"/>
<rect width="73" height="0" x="175" y="115" style="fill:rgb(240,240,0);stroke:none"/>
<rect width="73" height="0" x="175" y="115" rx="0" ry="0" style="fill:none;stroke-width:1;stroke:rgb(0,0,0)"/>
<line x1="211" y1="115" x2="211" y2="115" stroke="rgb(0,0,0)" stroke-width="1"/>
<line x1="175" y1="115" x2="248" y2="115" stroke="rgb(0,0,0)" stroke-width="1"/>
<line x1="211" y1="115" x2="211" y2="115" stroke="rgb(0,0,0)" stroke-width="1"/>
<line x1="175" y1="115" x2="248" y2="115" stroke="rgb(0,0,0)" stroke-width="1"/>
<line x1="175" y1="115" x2="248" y2="115" stroke="rgb(200,0,0)" stroke-width="1"/>
<rect width="73" height="0" x="252" y="115" style="fill:rgb(240,240,0);stroke:none"/>
<rect width="73" height="0" x="252" y="115" rx="0" ry="0" style="fill:none;stroke-width:1;stroke:rgb(0,0,0)"/>
<line x1="288" y1="115" x2="288" y2="115" stroke="rgb(0,0,0)" stroke-width="1"/>
<line x1="252" y1="115" x2="325" y2="115" stroke="rgb(0,0,0)" stroke-width="1"/>
<line x1="288" y1="115" x2="288" y2="115" stroke="rgb(0,0,0)" stroke-width="1"/>
<line x1="252" y1="115" x2="325" y2="115" stroke="rgb(0,0,0)" stroke-width="1"/>
<line x1="252" y1="115" x2="325" y2="115" stroke="rgb(200,0,0)" stroke-width="1"/>
<rect width="73" height="0" x="329" y="115" style="fill:rgb(240,240,0);stroke:none"/>
<rect width="73" height="0" x="329" y="115" rx="0" ry="0" style="fill:none;stroke-width:1;stroke:rgb(0,0,0)"/>
<line x1="365" y1="115" x2="365" y2="115" stroke="rgb(0,0,0)" stroke-width="1"/>
<line x1="329" y1="115" x2="402" y2="115" stroke="rgb(0,0,0)" stroke-width="1"/>
<line x1="365" y1="115" x2="365" y2="115" stroke="rgb(0,0,0)" stroke-width="1"/>
<line x1="329" y1="115" x2="402" y2="115" stroke="rgb(0,0,0)" stroke-width="1"/>
<line x1="329" y1="115" x2="402" y2="115" stroke="rgb(200,0,0)" stroke-width="1"/>
<rect width="73" height="0" x="406" y="115" style="fill:rgb(240,240,0);stroke:none"/>
<rect width="73" height="0" x="406" y="115" rx="0" ry="0" style="fill:none;stroke-width:1;stroke:rgb(0,0,0)"/>
<line x1="442" y1="115" x2="442" y2="115" stroke="rgb(0,0,0)" stroke-width="1"/>
<line x1="406" y1="115" x2="479" y2="115" stroke="rgb(0,0,0)" stroke-width="1"/>
<line x1="442" y1="115" x2="442" y2="115" stroke="rgb(0,0,0)" stroke-width="1"/>
<line x1="406" y1="115" x2="479" y2="115" stroke="rgb(0,0,0)" stroke-width="1"/>
<line x1="406" y1="115" x2="479" y2="115" stroke="rgb(200,0,0)" stroke-width="1"/>
<rect width="73" height="0" x="483" y="115" style="fill:rgb(240,240,0);stroke:none"/>
<rect width="73" height="0" x="483" y="115" rx="0" ry="0" style="fill:none;stroke-width:1;stroke:rgb(0,0,0)"/>
<line x1="519" y1="115" x2="519" y2="115" stroke="rgb(0,0,0)" stroke-width="1"/>
<line x1="483" y1="115" x2="556" y2="115" stroke="rgb(0,0,0)" stroke-width="1"/>
<line x1="519" y1="115" x2="519" y2="115" stroke="rgb(0,0,0)" stroke-width="1"/>
<line x1="483" y1="115" x2="556" y2="115" stroke="rgb(0,0,0)" stroke-width="1"/>
<line x1="483" y1="115" x2="556" y2="115" stroke="rgb(200,0,0)" stroke-width="1"/>
<rect width="73" height="0" x="560" y="115" style="fill:rgb(240,240,0);stroke:none"/>
<rect width="73" height="0" x="560" y="115" rx="0" ry="0" style="fill:none;stroke-width:1;stroke:rgb(0,0,0)"/>
<line x1="596" y1="115" x2="596" y2="115" stroke="rgb(0,0,0)" stroke-width="1"/>
<line x1="560" y1="115" x2="633" y2="115" stroke="rgb(0,0,0)" stroke-width="1"/>
<line x1="596" y1="115" x2="596" y2="115" stroke="rgb(0,0,0)" stroke-width="1"/>
<line x1="560" y1="115" x2="633" y2="115" stroke="rgb(0,0,0)" stroke-width="1"/>
<line x1="560" y1="115" x2="633" y2="115" stroke="rgb(200,0,0)" stroke-width="1"/>
<rect width="73" height="0" x="637" y="115" style="fill:rgb(240,240,0);stroke:none"/>
<rect width="73" height="0" x="637" y="115" rx="0" ry="0" style="fill:none;stroke-width:1;stroke:rgb(0,0,0)"/>
<line x1="673" y1="115" x2="673" y2="115" stroke="rgb(0,0,0)" stroke-width="1"/>
<line x1="637" y1="115" x2="710" y2="115" stroke="rgb(0,0,0)" stroke-width="1"/>
<line x1="673" y1="115" x2="673" y2="115" stroke="rgb(0,0,0)" stroke-width="1"/>
<line x1="637" y1="115" x2="710" y2="115" stroke="rgb(0,0,0)" stroke-width="1"/>
<line x1="637" y1="115" x2="710" y2="115" stroke="rgb(200,0,0)" stroke-width="1"/>
<rect width="73" height="0" x="714" y="115" style="fill:rgb(240,240,0);stroke:none"/>
<rect width="73" height="0" x="714" y="115" rx="0" ry="0" style="fill:none;stroke-width:1;stroke:rgb(0,0,0)"/>
<line x1="750" y1="115" x2="750" y2="115" stroke="rgb(0,0,0)" stroke-width="1"/>
<line x1="714" y1="115" x2="787" y2="115" stroke="rgb(0,0,0)" stroke-width="1"/>
<line x1="750" y1="115" x2="750" y2="115" stroke="rgb(0,0,0)" stroke-width="1"/>
<line x1="714" y1="115" x2="787" y2="115" stroke="rgb(0,0,0)" stroke-width="1"/>
<line x1="714" y1="115" x2="787" y2="115" stroke="rgb(200,0,0)" stroke-width="1"/>
<line x1="57" y1="117" x2="134" y2="117" stroke="rgb(0,0,200)" stroke-width="1"/>
<line x1="134" y1="117" x2="211" y2="117" stroke="rgb(0,0,200)" stroke-width="1"/>
<line x1="211" y1="117" x2="288" y2="117" stroke="rgb(0,0,200)" stroke-width="1"/>
<line x1="288" y1="117" x2="365" y2="117" stroke="rgb(0,0,200)" stroke-width="1"/>
<line x1="365" y1="117" x2="442" y2="117" stroke="rgb(0,0,200)" stroke-width="1"/>
<line x1="442" y1="117" x2="519" y2="117" stroke="rgb(0,0,200)" stroke-width="1"/>
<line x1="519" y1="117" x2="596" y2="117" stroke="rgb(0,0,200)" stroke-width="1"/>
<line x1="596" y1="117" x2="673" y2="117" stroke="rgb(0,0,200)" stroke-width="1"/>
<line x1="673" y1="117" x2="750" y2="117" stroke="rgb(0,0,200)" stroke-width="1"/>
</svg>
