<?xml version="1.0" standalone="no"?>
<!DOCTYPE svg PUBLIC "-//W3C//DTD SVG 1.1//EN" "http://www.w3.org/Graphics/SVG/1.1/DTD/svg11.dtd">
<svg width="800" height="600" version="1.1" xmlns="http://www.w3.org/2000/svg">
<rect width="800" height="600" x="0" y="0" style="fill:rgb(238,238,238);stroke:none"/>
<rect width="800" height="600" x="0" y="0" style="fill:rgb(255,255,255);stroke:none"/>
<text x="2" y="566" fill="rgb(0,0,0)" font-family="Arial" font-size="12">0</text>
<text x="2" y="476" fill="rgb(0,0,0)" font-family="Arial" font-size="12">100000</text>
<text x="2" y="385" fill="rgb(0,0,0)" font-family="Arial" font-size="12">200000</text>
<text x="2" y="294" fill="rgb(0,0,0)" font-family="Arial" font-size="12">300000</text>
<text x="2" y="204" fill="rgb(0,0,0)" font-family="Arial" font-size="12">400000</text>
<text x="2" y="113" fill="rgb(0,0,0)" font-family="Arial" font-size="12">500000</text>
<text x="297" y="30" fill="rgb(0,0,0)" font-family="Arial" font-size="12">Quality score distribution over all sequences</text>
<line x1="47" y1="560" x2="790" y2="560" stroke="rgb(0,0,0)" stroke-width="1"/>
<line x1="47" y1="560" x2="47" y2="40" stroke="rgb(0,0,0)" stroke-width="1"/>
<text x="296" y="595" fill="rgb(0,0,0)" font-family="Arial" font-size="12">Mean Sequence Quality (Phred Score)</text>
<text x="57" y="575" fill="rgb(0,0,0)" font-family="Arial" font-size="12">3</text>
<rect width="26" height="520" x="73" y="40" style="fill:rgb(230,230,230);stroke:none"/>
<text x="83" y="575" fill="rgb(0,0,0)" font-family="Arial" font-size="12">4</text>
<text x="109" y="575" fill="rgb(0,0,0)" font-family="Arial" font-size="12">5</text>
<rect width="26" height="520" x="125" y="40" style="fill:rgb(230,230,230);stroke:none"/>
<text x="135" y="575" fill="rgb(0,0,0)" font-family="Arial" font-size="12">6</text>
<text x="161" y="575" fill="rgb(0,0,0)" font-family="Arial" font-size="12">7</text>
<rect width="26" height="520" x="177" y="40" style="fill:rgb(230,230,230);stroke:none"/>
<text x="187" y="575" fill="rgb(0,0,0)" font-family="Arial" font-size="12">8</text>
<text x="213" y="575" fill="rgb(0,0,0)" font-family="Arial" font-size="12">9</text>
<rect width="26" height="520" x="229" y="40" style="fill:rgb(230,230,230);stroke:none"/>
<text x="235" y="575" fill="rgb(0,0,0)" font-family="Arial" font-size="12">10</text>
<text x="261" y="575" fill="rgb(0,0,0)" font-family="Arial" font-size="12">11</text>
<rect width="26" height="520" x="281" y="40" style="fill:rgb(230,230,230);stroke:none"/>
<text x="287" y="575" fill="rgb(0,0,0)" font-family="Arial" font-size="12">12</text>
<text x="313" y="575" fill="rgb(0,0,0)" font-family="Arial" font-size="12">13</text>
<rect width="26" height="520" x="333" y="40" style="fill:rgb(230,230,230);stroke:none"/>
<text x="339" y="575" fill="rgb(0,0,0)" font-family="Arial" font-size="12">14</text>
<text x="365" y="575" fill="rgb(0,0,0)" font-family="Arial" font-size="12">15</text>
<rect width="26" height="520" x="385" y="40" style="fill:rgb(230,230,230);stroke:none"/>
<text x="391" y="575" fill="rgb(0,0,0)" font-family="Arial" font-size="12">16</text>
<text x="417" y="575" fill="rgb(0,0,0)" font-family="Arial" font-size="12">17</text>
<rect width="26" height="520" x="437" y="40" style="fill:rgb(230,230,230);stroke:none"/>
<text x="443" y="575" fill="rgb(0,0,0)" font-family="Arial" font-size="12">18</text>
<text x="469" y="575" fill="rgb(0,0,0)" font-family="Arial" font-size="12">19</text>
<rect width="26" height="520" x="489" y="40" style="fill:rgb(230,230,230);stroke:none"/>
<text x="495" y="575" fill="rgb(0,0,0)" font-family="Arial" font-size="12">20</text>
<text x="521" y="575" fill="rgb(0,0,0)" font-family="Arial" font-size="12">21</text>
<rect width="26" height="520" x="541" y="40" style="fill:rgb(230,230,230);stroke:none"/>
<text x="547" y="575" fill="rgb(0,0,0)" font-family="Arial" font-size="12">22</text>
<text x="573" y="575" fill="rgb(0,0,0)" font-family="Arial" font-size="12">23</text>
<rect width="26" height="520" x="593" y="40" style="fill:rgb(230,230,230);stroke:none"/>
<text x="599" y="575" fill="rgb(0,0,0)" font-family="Arial" font-size="12">24</text>
<text x="625" y="575" fill="rgb(0,0,0)" font-family="Arial" font-size="12">25</text>
<rect width="26" height="520" x="645" y="40" style="fill:rgb(230,230,230);stroke:none"/>
<text x="651" y="575" fill="rgb(0,0,0)" font-family="Arial" font-size="12">26</text>
<text x="677" y="575" fill="rgb(0,0,0)" font-family="Arial" font-size="12">27</text>
<rect width="26" height="520" x="697" y="40" style="fill:rgb(230,230,230);stroke:none"/>
<text x="703" y="575" fill="rgb(0,0,0)" font-family="Arial" font-size="12">28</text>
<text x="729" y="575" fill="rgb(0,0,0)" font-family="Arial" font-size="12">29</text>
<rect width="26" height="520" x="749" y="40" style="fill:rgb(230,230,230);stroke:none"/>
<text x="755" y="575" fill="rgb(0,0,0)" font-family="Arial" font-size="12">30</text>
<line x1="47" y1="560" x2="790" y2="560" stroke="rgb(180,180,180)" stroke-width="1"/>
<line x1="47" y1="470" x2="790" y2="470" stroke="rgb(180,180,180)" stroke-width="1"/>
<line x1="47" y1="379" x2="790" y2="379" stroke="rgb(180,180,180)" stroke-width="1"/>
<line x1="47" y1="288" x2="790" y2="288" stroke="rgb(180,180,180)" stroke-width="1"/>
<line x1="47" y1="198" x2="790" y2="198" stroke="rgb(180,180,180)" stroke-width="1"/>
<line x1="47" y1="107" x2="790" y2="107" stroke="rgb(180,180,180)" stroke-width="1"/>
<line x1="60" y1="558" x2="86" y2="560" stroke="rgb(136,34,85)" stroke-width="1"/>
<line x1="86" y1="560" x2="112" y2="560" stroke="rgb(136,34,85)" stroke-width="1"/>
<line x1="112" y1="560" x2="138" y2="560" stroke="rgb(136,34,85)" stroke-width="1"/>
<line x1="138" y1="560" x2="164" y2="560" stroke="rgb(136,34,85)" stroke-width="1"/>
<line x1="164" y1="560" x2="190" y2="560" stroke="rgb(136,34,85)" stroke-width="1"/>
<line x1="190" y1="560" x2="216" y2="560" stroke="rgb(136,34,85)" stroke-width="1"/>
<line x1="216" y1="560" x2="242" y2="560" stroke="rgb(136,34,85)" stroke-width="1"/>
<line x1="242" y1="560" x2="268" y2="560" stroke="rgb(136,34,85)" stroke-width="1"/>
<line x1="268" y1="560" x2="294" y2="560" stroke="rgb(136,34,85)" stroke-width="1"/>
<line x1="294" y1="560" x2="320" y2="560" stroke="rgb(136,34,85)" stroke-width="1"/>
<line x1="320" y1="560" x2="346" y2="560" stroke="rgb(136,34,85)" stroke-width="1"/>
<line x1="346" y1="560" x2="372" y2="560" stroke="rgb(136,34,85)" stroke-width="1"/>
<line x1="372" y1="560" x2="398" y2="560" stroke="rgb(136,34,85)" stroke-width="1"/>
<line x1="398" y1="560" x2="424" y2="560" stroke="rgb(136,34,85)" stroke-width="1"/>
<line x1="424" y1="560" x2="450" y2="560" stroke="rgb(136,34,85)" stroke-width="1"/>
<line x1="450" y1="560" x2="476" y2="560" stroke="rgb(136,34,85)" stroke-width="1"/>
<line x1="476" y1="560" x2="502" y2="560" stroke="rgb(136,34,85)" stroke-width="1"/>
<line x1="502" y1="560" x2="528" y2="560" stroke="rgb(136,34,85)" stroke-width="1"/>
<line x1="528" y1="560" x2="554" y2="560" stroke="rgb(136,34,85)" stroke-width="1"/>
<line x1="554" y1="560" x2="580" y2="560" stroke="rgb(136,34,85)" stroke-width="1"/>
<line x1="580" y1="560" x2="606" y2="560" stroke="rgb(136,34,85)" stroke-width="1"/>
<line x1="606" y1="560" x2="632" y2="560" stroke="rgb(136,34,85)" stroke-width="1"/>
<line x1="632" y1="560" x2="658" y2="560" stroke="rgb(136,34,85)" stroke-width="1"/>
<line x1="658" y1="560" x2="684" y2="560" stroke="rgb(136,34,85)" stroke-width="1"/>
<line x1="684" y1="560" x2="710" y2="560" stroke="rgb(136,34,85)" stroke-width="1"/>
<line x1="710" y1="560" x2="736" y2="560" stroke="rgb(136,34,85)" stroke-width="1"/>
<line x1="736" y1="560" x2="762" y2="40" stroke="rgb(136,34,85)" stroke-width="1"/>
<rect width="146" height="23" x="644" y="40" style="fill:rgb(255,255,255);stroke:none"/>
<rect width="146" height="23" x="644" y="40" rx="0" ry="0" style="fill:none;stroke-width:1;stroke:rgb(192,192,192)"/>
<text x="647" y="55" fill="rgb(136,34,85)" font-family="Arial" font-size="12" font-weight="bold">Average Quality per read</text>
</svg>
