<?xml version="1.0" standalone="no"?>
<!DOCTYPE svg PUBLIC "-//W3C//DTD SVG 1.1//EN" "http://www.w3.org/Graphics/SVG/1.1/DTD/svg11.dtd">
<svg width="800" height="600" version="1.1" xmlns="http://www.w3.org/2000/svg">
<rect width="800" height="600" x="0" y="0" style="fill:rgb(238,238,238);stroke:none"/>
<rect width="800" height="600" x="0" y="0" style="fill:rgb(255,255,255);stroke:none"/>
<text x="2" y="566" fill="rgb(0,0,0)" font-family="Arial" font-size="12">0</text>
<text x="2" y="476" fill="rgb(0,0,0)" font-family="Arial" font-size="12">100000</text>
<text x="2" y="386" fill="rgb(0,0,0)" font-family="Arial" font-size="12">200000</text>
<text x="2" y="296" fill="rgb(0,0,0)" font-family="Arial" font-size="12">300000</text>
<text x="2" y="206" fill="rgb(0,0,0)" font-family="Arial" font-size="12">400000</text>
<text x="2" y="115" fill="rgb(0,0,0)" font-family="Arial" font-size="12">500000</text>
<text x="276" y="30" fill="rgb(0,0,0)" font-family="Arial" font-size="12">Distribution of sequence lengths over all sequences</text>
<line x1="47" y1="560" x2="790" y2="560" stroke="rgb(0,0,0)" stroke-width="1"/>
<line x1="47" y1="560" x2="47" y2="40" stroke="rgb(0,0,0)" stroke-width="1"/>
<text x="339" y="595" fill="rgb(0,0,0)" font-family="Arial" font-size="12">Sequence Length (bp)</text>
<text x="167" y="575" fill="rgb(0,0,0)" font-family="Arial" font-size="12">9</text>
<rect width="247" height="520" x="294" y="40" style="fill:rgb(230,230,230);stroke:none"/>
<text x="410" y="575" fill="rgb(0,0,0)" font-family="Arial" font-size="12">10</text>
<text x="657" y="575" fill="rgb(0,0,0)" font-family="Arial" font-size="12">11</text>
<line x1="47" y1="560" x2="790" y2="560" stroke="rgb(180,180,180)" stroke-width="1"/>
<line x1="47" y1="470" x2="790" y2="470" stroke="rgb(180,180,180)" stroke-width="1"/>
<line x1="47" y1="380" x2="790" y2="380" stroke="rgb(180,180,180)" stroke-width="1"/>
<line x1="47" y1="290" x2="790" y2="290" stroke="rgb(180,180,180)" stroke-width="1"/>
<line x1="47" y1="200" x2="790" y2="200" stroke="rgb(180,180,180)" stroke-width="1"/>
<line x1="47" y1="109" x2="790" y2="109" stroke="rgb(180,180,180)" stroke-width="1"/>
<line x1="170" y1="560" x2="417" y2="40" stroke="rgb(136,34,85)" stroke-width="1"/>
<line x1="417" y1="40" x2="664" y2="560" stroke="rgb(136,34,85)" stroke-width="1"/>
<rect width="105" height="23" x="685" y="40" style="fill:rgb(255,255,255);stroke:none"/>
<rect width="105" height="23" x="685" y="40" rx="0" ry="0" style="fill:none;stroke-width:1;stroke:rgb(192,192,192)"/>
<text x="688" y="55" fill="rgb(136,34,85)" font-family="Arial" font-size="12" font-weight="bold">Sequence Length</text>
</svg>
