<?xml version="1.0" standalone="no"?>
<!DOCTYPE svg PUBLIC "-//W3C//DTD SVG 1.1//EN" "http://www.w3.org/Graphics/SVG/1.1/DTD/svg11.dtd">
<svg width="800" height="600" version="1.1" xmlns="http://www.w3.org/2000/svg">
<rect width="800" height="600" x="0" y="0" style="fill:rgb(238,238,238);stroke:none"/>
<rect width="800" height="600" x="0" y="0" style="fill:rgb(255,255,255);stroke:none"/>
<text x="2" y="566" fill="rgb(0,0,0)" font-family="Arial" font-size="12">0</text>
<text x="2" y="465" fill="rgb(0,0,0)" font-family="Arial" font-size="12">10000</text>
<text x="2" y="363" fill="rgb(0,0,0)" font-family="Arial" font-size="12">20000</text>
<text x="2" y="261" fill="rgb(0,0,0)" font-family="Arial" font-size="12">30000</text>
<text x="2" y="160" fill="rgb(0,0,0)" font-family="Arial" font-size="12">40000</text>
<text x="2" y="58" fill="rgb(0,0,0)" font-family="Arial" font-size="12">50000</text>
<text x="273" y="30" fill="rgb(0,0,0)" font-family="Arial" font-size="12">Distribution of sequence lengths over all sequences</text>
<line x1="40" y1="560" x2="790" y2="560" stroke="rgb(0,0,0)" stroke-width="1"/>
<line x1="40" y1="560" x2="40" y2="40" stroke="rgb(0,0,0)" stroke-width="1"/>
<text x="339" y="595" fill="rgb(0,0,0)" font-family="Arial" font-size="12">Sequence Length (bp)</text>
<text x="39" y="575" fill="rgb(0,0,0)" font-family="Arial" font-size="12">30-34</text>
<rect width="30" height="520" x="70" y="40" style="fill:rgb(230,230,230);stroke:none"/>
<text x="99" y="575" fill="rgb(0,0,0)" font-family="Arial" font-size="12">40-44</text>
<rect width="30" height="520" x="130" y="40" style="fill:rgb(230,230,230);stroke:none"/>
<text x="159" y="575" fill="rgb(0,0,0)" font-family="Arial" font-size="12">50-54</text>
<rect width="30" height="520" x="190" y="40" style="fill:rgb(230,230,230);stroke:none"/>
<text x="219" y="575" fill="rgb(0,0,0)" font-family="Arial" font-size="12">60-64</text>
<rect width="30" height="520" x="250" y="40" style="fill:rgb(230,230,230);stroke:none"/>
<text x="279" y="575" fill="rgb(0,0,0)" font-family="Arial" font-size="12">70-74</text>
<rect width="30" height="520" x="310" y="40" style="fill:rgb(230,230,230);stroke:none"/>
<text x="339" y="575" fill="rgb(0,0,0)" font-family="Arial" font-size="12">80-84</text>
<rect width="30" height="520" x="370" y="40" style="fill:rgb(230,230,230);stroke:none"/>
<text x="399" y="575" fill="rgb(0,0,0)" font-family="Arial" font-size="12">90-94</text>
<rect width="30" height="520" x="430" y="40" style="fill:rgb(230,230,230);stroke:none"/>
<text x="452" y="575" fill="rgb(0,0,0)" font-family="Arial" font-size="12">100-104</text>
<rect width="30" height="520" x="490" y="40" style="fill:rgb(230,230,230);stroke:none"/>
<text x="512" y="575" fill="rgb(0,0,0)" font-family="Arial" font-size="12">110-114</text>
<rect width="30" height="520" x="550" y="40" style="fill:rgb(230,230,230);stroke:none"/>
<text x="572" y="575" fill="rgb(0,0,0)" font-family="Arial" font-size="12">120-124</text>
<rect width="30" height="520" x="610" y="40" style="fill:rgb(230,230,230);stroke:none"/>
<text x="632" y="575" fill="rgb(0,0,0)" font-family="Arial" font-size="12">130-134</text>
<rect width="30" height="520" x="670" y="40" style="fill:rgb(230,230,230);stroke:none"/>
<text x="692" y="575" fill="rgb(0,0,0)" font-family="Arial" font-size="12">140-144</text>
<rect width="30" height="520" x="730" y="40" style="fill:rgb(230,230,230);stroke:none"/>
<text x="752" y="575" fill="rgb(0,0,0)" font-family="Arial" font-size="12">150-152</text>
<line x1="40" y1="560" x2="790" y2="560" stroke="rgb(180,180,180)" stroke-width="1"/>
<line x1="40" y1="459" x2="790" y2="459" stroke="rgb(180,180,180)" stroke-width="1"/>
<line x1="40" y1="357" x2="790" y2="357" stroke="rgb(180,180,180)" stroke-width="1"/>
<line x1="40" y1="255" x2="790" y2="255" stroke="rgb(180,180,180)" stroke-width="1"/>
<line x1="40" y1="154" x2="790" y2="154" stroke="rgb(180,180,180)" stroke-width="1"/>
<line x1="40" y1="52" x2="790" y2="52" stroke="rgb(180,180,180)" stroke-width="1"/>
<line x1="55" y1="560" x2="85" y2="552" stroke="rgb(136,34,85)" stroke-width="1"/>
<line x1="85" y1="552" x2="115" y2="556" stroke="rgb(136,34,85)" stroke-width="1"/>
<line x1="115" y1="556" x2="145" y2="555" stroke="rgb(136,34,85)" stroke-width="1"/>
<line x1="145" y1="555" x2="175" y2="555" stroke="rgb(136,34,85)" stroke-width="1"/>
<line x1="175" y1="555" x2="205" y2="554" stroke="rgb(136,34,85)" stroke-width="1"/>
<line x1="205" y1="554" x2="235" y2="554" stroke="rgb(136,34,85)" stroke-width="1"/>
<line x1="235" y1="554" x2="265" y2="552" stroke="rgb(136,34,85)" stroke-width="1"/>
<line x1="265" y1="552" x2="295" y2="435" stroke="rgb(136,34,85)" stroke-width="1"/>
<line x1="295" y1="435" x2="325" y2="398" stroke="rgb(136,34,85)" stroke-width="1"/>
<line x1="325" y1="398" x2="355" y2="362" stroke="rgb(136,34,85)" stroke-width="1"/>
<line x1="355" y1="362" x2="385" y2="163" stroke="rgb(136,34,85)" stroke-width="1"/>
<line x1="385" y1="163" x2="415" y2="161" stroke="rgb(136,34,85)" stroke-width="1"/>
<line x1="415" y1="161" x2="445" y2="56" stroke="rgb(136,34,85)" stroke-width="1"/>
<line x1="445" y1="56" x2="475" y2="336" stroke="rgb(136,34,85)" stroke-width="1"/>
<line x1="475" y1="336" x2="505" y2="156" stroke="rgb(136,34,85)" stroke-width="1"/>
<line x1="505" y1="156" x2="535" y2="40" stroke="rgb(136,34,85)" stroke-width="1"/>
<line x1="535" y1="40" x2="565" y2="186" stroke="rgb(136,34,85)" stroke-width="1"/>
<line x1="565" y1="186" x2="595" y2="42" stroke="rgb(136,34,85)" stroke-width="1"/>
<line x1="595" y1="42" x2="625" y2="77" stroke="rgb(136,34,85)" stroke-width="1"/>
<line x1="625" y1="77" x2="655" y2="127" stroke="rgb(136,34,85)" stroke-width="1"/>
<line x1="655" y1="127" x2="685" y2="227" stroke="rgb(136,34,85)" stroke-width="1"/>
<line x1="685" y1="227" x2="715" y2="402" stroke="rgb(136,34,85)" stroke-width="1"/>
<line x1="715" y1="402" x2="745" y2="437" stroke="rgb(136,34,85)" stroke-width="1"/>
<line x1="745" y1="437" x2="775" y2="100" stroke="rgb(136,34,85)" stroke-width="1"/>
<rect width="105" height="23" x="685" y="40" style="fill:rgb(255,255,255);stroke:none"/>
<rect width="105" height="23" x="685" y="40" rx="0" ry="0" style="fill:none;stroke-width:1;stroke:rgb(192,192,192)"/>
<text x="688" y="55" fill="rgb(136,34,85)" font-family="Arial" font-size="12" font-weight="bold">Sequence Length</text>
</svg>
